<svg width="32" height="32" viewBox="0 0 32 32" fill="none" xmlns="http://www.w3.org/2000/svg">
<rect width="32" height="32" fill="white"/>
<path d="M13.1162 21.1162C13.6044 20.6281 14.3956 20.6281 14.8838 21.1162C15.3719 21.6044 15.3719 22.3956 14.8838 22.8838L10.8838 26.8838C10.3956 27.3719 9.60436 27.3719 9.11621 26.8838L5.11621 22.8838C4.62805 22.3956 4.62805 21.6044 5.11621 21.1162C5.60436 20.6281 6.39563 20.6281 6.88379 21.1162L10 24.2324L13.1162 21.1162Z" fill="#E55E1A"/>
<path d="M8.75 26V6C8.75 5.30964 9.30964 4.75 10 4.75C10.6904 4.75 11.25 5.30964 11.25 6V26C11.25 26.6904 10.6904 27.25 10 27.25C9.30964 27.25 8.75 26.6904 8.75 26Z" fill="#E55E1A"/>
<path d="M21.2109 5.03027C21.7019 4.62979 22.4261 4.65855 22.8838 5.11621L26.8838 9.11621C27.3719 9.60437 27.3719 10.3956 26.8838 10.8838C26.3956 11.3719 25.6044 11.3719 25.1162 10.8838L22 7.76758L18.8838 10.8838C18.3956 11.3719 17.6044 11.3719 17.1162 10.8838C16.6281 10.3956 16.6281 9.60437 17.1162 9.11621L21.1162 5.11621L21.2109 5.03027Z" fill="#E55E1A"/>
<path d="M20.75 26V6C20.75 5.30964 21.3096 4.75 22 4.75C22.6904 4.75 23.25 5.30964 23.25 6V26C23.25 26.6904 22.6904 27.25 22 27.25C21.3096 27.25 20.75 26.6904 20.75 26Z" fill="#E55E1A"/>
</svg>
